<?xml version="1.0" encoding="utf-8"?>
<svg xmlns="http://www.w3.org/2000/svg" viewBox="377.645 161.107 55.262 55.262" width="55.262px" height="55.262px"><g id="object-12" transform="matrix(1, 0, 0, 1, 0, -7.105427357601002e-15)"><g id="object-11"><circle style="stroke: rgb(0, 0, 0); fill: none; stroke-width: 3px;" cx="405.111" cy="188.838" r="22" id="object-4"/><circle style="stroke: rgb(0, 0, 0);" cx="394.188" cy="182.23" r="3.778" transform="matrix(0.62809, 0, 0, 0.66241, 145.109314, 60.683369)" id="object-5"/><rect style="stroke: rgb(0, 0, 0);" x="397.749" y="180.391" width="21.814" height="2.375" rx="1" ry="1" id="object-6"/><circle style="stroke: rgb(0, 0, 0);" cx="394.188" cy="182.23" r="3.778" transform="matrix(0.62809, 0, 0, 0.66241, 145.128815, 68.212135)" id="object-7"/><rect style="stroke: rgb(0, 0, 0);" x="397.768" y="187.92" width="21.814" height="2.375" rx="1" ry="1" id="object-8"/><circle style="stroke: rgb(0, 0, 0);" cx="394.188" cy="182.23" r="3.778" transform="matrix(0.62809, 0, 0, 0.66241, 145.216766, 75.776665)" id="object-9"/><rect style="stroke: rgb(0, 0, 0);" x="397.856" y="195.485" width="21.814" height="2.375" rx="1" ry="1" id="object-10"/></g><circle style="stroke: rgba(0, 0, 0, 0); fill: rgba(0, 0, 0, 0);" cx="405.276" cy="188.738" r="27.631"/></g></svg>