<?xml version="1.0" encoding="utf-8"?>
<svg xmlns="http://www.w3.org/2000/svg" viewBox="0 0 257.456 275.442" xmlns:bx="https://boxy-svg.com" width="257.456px" height="275.442px"><defs><bx:export><bx:file format="svg" path="logo-sys.svg"/><bx:file format="svg" href="#object-0" path="Sem título 2.svg"/><bx:file format="svg" href="#object-2" path="Sem título 4.svg"/></bx:export></defs><path d="M 32.173 79.732 C 26.309 84.354 24.783 92.568 28.765 98.078 C 35.496 107.39 47.835 106.133 53.145 95.594 C 55.869 90.188 53.747 82.525 48.564 79.049 C 44.528 76.342 36.025 76.696 32.173 79.732" stroke="none" fill="#ee2a36" fill-rule="evenodd" id="object-0" style="transform-origin: 40.442px 90.788px;"/><path d="M 61.414 1.725 C 55.095 4.504 54.643 6.291 54.089 30.733 L 53.589 52.781 L 35.089 53.281 C 22.09 53.632 15.846 54.19 14.089 55.156 C 9.728 57.554 3.552 64.793 2.299 68.976 C 1.429 71.877 1.089 85.826 1.089 118.564 C 1.089 169.441 1.054 169.158 8.228 175.974 C 14.64 182.067 18.906 183.234 34.839 183.259 L 49.089 183.281 L 49.089 160.346 C 49.089 147.732 49.52 136.278 50.046 134.894 C 52.228 129.155 50.44 129.281 129.531 129.281 L 202.072 129.281 L 205.08 132.429 L 208.089 135.578 L 208.089 159.429 L 208.089 183.281 L 221.646 183.281 C 229.103 183.281 237.236 182.769 239.721 182.144 C 245.572 180.67 253.463 173.199 254.995 167.682 C 255.7 165.142 256.08 147.633 256.083 117.476 C 256.089 73.208 256.001 70.977 254.078 66.756 C 251.761 61.672 248.168 57.968 242.879 55.213 C 239.624 53.518 237.017 53.281 221.629 53.281 L 204.089 53.281 L 204.067 33.031 C 204.043 11.183 203.298 7.387 198.126 2.781 C 195.934 0.829 194.299 0.776 130.235 0.555 C 75.881 0.369 64.043 0.57 61.414 1.725 M 70.316 35.031 L 70.589 52.781 L 128.589 52.781 L 186.589 52.781 L 186.862 35.031 L 187.135 17.281 L 128.589 17.281 L 70.043 17.281 L 70.316 35.031 M 33.393 78.171 C 23.655 84.309 24.252 98.277 34.465 103.221 C 39.807 105.807 43.683 105.826 47.848 103.286 C 56.731 97.87 57.686 84.178 49.551 78.848 C 45.345 76.092 37.231 75.753 33.393 78.171 M 62.089 202.331 C 62.089 268.555 61.823 265.688 68.432 270.729 L 71.778 273.281 L 123.944 273.281 C 174.783 273.281 176.224 273.228 180.559 271.19 C 185.544 268.847 191.521 262.577 193.667 257.439 C 194.839 254.636 195.089 244.197 195.089 198.159 L 195.089 142.281 L 128.589 142.281 L 62.089 142.281 L 62.089 202.331 M 77.339 154.088 L 73.089 154.396 L 73.089 206.767 C 73.089 253.044 73.272 259.321 74.66 260.71 C 76.045 262.094 81.927 262.281 124.21 262.281 C 177.424 262.281 175.529 262.505 180.787 255.609 L 183.589 251.936 L 183.589 203.108 L 183.589 154.281 L 159.089 154.259 C 145.614 154.247 122.664 154.135 108.089 154.009 C 93.514 153.884 79.677 153.919 77.339 154.088 M 89.756 174.948 C 88.828 175.876 88.948 182.511 89.921 184.043 C 90.548 185.031 99.073 185.248 129.155 185.043 L 167.589 184.781 L 168.154 180.546 C 168.467 178.202 168.266 175.858 167.704 175.296 C 166.569 174.161 90.881 173.822 89.756 174.948 M 89.756 202.948 C 88.702 204.001 88.98 212.096 90.093 212.783 C 91.35 213.56 165.908 213.511 167.167 212.733 C 167.674 212.419 168.089 210.651 168.089 208.804 C 168.089 201.814 170.914 202.281 128.649 202.281 C 107.624 202.281 90.122 202.581 89.756 202.948 M 90.147 231.711 C 89.494 232.498 89.101 234.86 89.274 236.961 L 89.589 240.781 L 113.589 240.781 L 137.589 240.781 L 137.904 236.961 C 138.453 230.288 138.428 230.281 113.589 230.281 C 95.509 230.281 91.111 230.549 90.147 231.711" stroke="none" fill="#0d743b" fill-rule="evenodd" id="object-2"/></svg>